<svg width="26" height="26" viewBox="0 0 26 26" fill="none" xmlns="http://www.w3.org/2000/svg">
<path d="M12.7677 19.7505C8.94813 19.7505 5.85177 16.6435 5.85177 12.8109C5.85177 8.97829 8.94813 5.87134 12.7677 5.87134C16.5872 5.87134 19.6836 8.97829 19.6836 12.8109C19.6836 16.6435 16.5872 19.7505 12.7677 19.7505Z" stroke="#DFDFDF" stroke-width="1.59598" stroke-linecap="round" stroke-linejoin="round"/>
<path d="M5.17148 20.4346L5.3098 20.2958M5.3098 5.3277L5.17148 5.18891L5.3098 5.3277ZM20.3652 20.4346L20.2269 20.2958L20.3652 20.4346ZM12.7683 2.22091V2.1355V2.22091ZM12.7683 23.488V23.4026V23.488ZM23.3231 12.8118H23.4082H23.3231ZM2.12848 12.8118H2.2136H2.12848ZM20.2269 5.3277L20.3652 5.18891L20.2269 5.3277Z" stroke="#DFDFDF" stroke-width="2.12797" stroke-linecap="round" stroke-linejoin="round"/>
</svg>
