<svg width="27" height="26" viewBox="0 0 27 26" fill="none" xmlns="http://www.w3.org/2000/svg">
<path d="M13.5924 20.1274C9.77284 20.1274 6.67648 17.0205 6.67648 13.1879C6.67648 9.35524 9.77284 6.24829 13.5924 6.24829C17.4119 6.24829 20.5083 9.35524 20.5083 13.1879C20.5083 17.0205 17.4119 20.1274 13.5924 20.1274Z" stroke="#3A3A3A" stroke-width="1.59598" stroke-linecap="round" stroke-linejoin="round"/>
<path d="M5.99619 20.8116L6.1345 20.6728M6.1345 5.70466L5.99619 5.56586L6.1345 5.70466ZM21.1899 20.8116L21.0516 20.6728L21.1899 20.8116ZM13.593 2.59786V2.51245V2.59786ZM13.593 23.865V23.7796V23.865ZM24.1478 13.1887H24.2329H24.1478ZM2.95318 13.1887H3.0383H2.95318ZM21.0516 5.70466L21.1899 5.56586L21.0516 5.70466Z" stroke="#3A3A3A" stroke-width="2.12797" stroke-linecap="round" stroke-linejoin="round"/>
</svg>
