<svg width="101" height="51" viewBox="0 0 101 51" fill="none" xmlns="http://www.w3.org/2000/svg">
<path d="M90.5587 43.1968C89.3677 43.0438 88.3307 42.7706 87.4478 42.3772C86.5648 41.9837 85.8461 41.4482 85.2917 40.7706C84.7168 40.1149 84.2855 39.3062 83.9981 38.3444C83.7311 37.3827 83.5977 36.268 83.5977 35.0002V28.6397C83.5977 28.1588 83.6798 27.7108 83.8441 27.2955C84.0289 26.8583 84.2855 26.4649 84.6141 26.1152C84.9632 25.7436 85.3328 25.4704 85.7229 25.2955C86.1336 25.1206 86.5751 25.0332 87.0474 25.0332C87.5196 25.0332 87.9508 25.1206 88.341 25.2955C88.7517 25.4704 89.1213 25.7436 89.4498 26.1152C89.7989 26.4649 90.0556 26.8692 90.2198 27.3282C90.3841 27.7654 90.4663 28.2353 90.4663 28.7381V34.9347C90.4663 35.1095 90.4765 35.2735 90.497 35.4265C90.5176 35.5576 90.5381 35.6778 90.5587 35.7871C90.5997 35.8745 90.6408 35.9729 90.6819 36.0822C90.7229 36.1696 90.7845 36.257 90.8667 36.3445C90.9283 36.4319 90.9899 36.5084 91.0515 36.574C91.1131 36.6395 91.1849 36.6942 91.2671 36.7379C91.3492 36.7816 91.4313 36.8253 91.5135 36.8691C91.6161 36.8909 91.7188 36.9128 91.8215 36.9346C91.8215 36.9346 91.8318 36.9346 91.8523 36.9346C91.8523 36.9565 91.8523 36.9674 91.8523 36.9674C91.8728 36.9674 91.8831 36.9674 91.8831 36.9674C91.9036 36.9674 91.9139 36.9674 91.9139 36.9674C91.9344 36.9674 91.955 36.9674 91.9755 36.9674C91.996 36.9674 92.0166 36.9674 92.0371 36.9674C92.0576 36.9674 92.0679 36.9674 92.0679 36.9674C92.0884 36.9674 92.109 36.9674 92.1295 36.9674C92.1911 36.9674 92.2527 36.9674 92.3143 36.9674C92.3759 36.9674 92.4375 36.9565 92.4991 36.9346C92.5402 36.9128 92.5915 36.8909 92.6531 36.8691C92.7147 36.8472 92.7763 36.8253 92.8379 36.8035C92.9406 36.7598 93.033 36.6942 93.1151 36.6068C93.2178 36.5193 93.3102 36.4319 93.3923 36.3445C93.4745 36.257 93.5361 36.1696 93.5771 36.0822C93.6387 35.9729 93.6798 35.8745 93.7003 35.7871C93.7414 35.6778 93.7619 35.5576 93.7619 35.4265C93.7825 35.2735 93.7927 35.1205 93.7927 34.9674V28.7053C93.7927 28.2244 93.8749 27.7654 94.0391 27.3282C94.224 26.8692 94.4806 26.4649 94.8092 26.1152C95.1583 25.7436 95.5279 25.4704 95.918 25.2955C96.3287 25.1206 96.7702 25.0332 97.2424 25.0332C97.7147 25.0332 98.1562 25.1206 98.5669 25.2955C98.9776 25.4704 99.3472 25.7436 99.6757 26.1152C100.025 26.4649 100.281 26.8583 100.446 27.2955C100.61 27.7108 100.692 28.1698 100.692 28.6725V34.9674C100.692 36.257 100.548 37.3827 100.261 38.3444C99.9735 39.3062 99.5525 40.1149 98.9981 40.7706C98.4231 41.4482 97.6942 41.9837 96.8112 42.3772C95.9488 42.7706 94.9221 43.0329 93.7311 43.164C93.7106 43.164 93.6798 43.164 93.6387 43.164C93.5977 43.164 93.5669 43.175 93.5463 43.1968C93.5053 43.1968 93.4642 43.1968 93.4231 43.1968C93.4026 43.1968 93.3718 43.1968 93.3307 43.1968C93.3102 43.1968 93.2794 43.1968 93.2383 43.1968C93.1973 43.1968 93.1665 43.2077 93.1459 43.2296C93.1049 43.2296 93.0638 43.2296 93.0227 43.2296C93.0022 43.2296 92.9714 43.2296 92.9303 43.2296C92.8892 43.2296 92.8482 43.2296 92.8071 43.2296C92.766 43.2296 92.7352 43.2405 92.7147 43.2624C92.6736 43.2624 92.6326 43.2624 92.5915 43.2624C92.571 43.2624 92.5402 43.2624 92.4991 43.2624C92.4375 43.2624 92.3759 43.2624 92.3143 43.2624C92.2527 43.2624 92.1911 43.2624 92.1295 43.2624C92.0679 43.2624 91.996 43.2624 91.9139 43.2624C91.8523 43.2624 91.7907 43.2624 91.7291 43.2624C91.6469 43.2405 91.5751 43.2296 91.5135 43.2296C91.4519 43.2296 91.3903 43.2296 91.3287 43.2296C91.2671 43.2296 91.2055 43.2296 91.1439 43.2296C91.0823 43.2296 91.0207 43.2187 90.9591 43.1968C90.8769 43.1968 90.8051 43.1859 90.7435 43.164C90.6819 43.164 90.6203 43.164 90.5587 43.164V43.1968Z" fill="white"/>
<path d="M72.9764 43.2949C71.6827 43.273 70.4918 43.0435 69.4035 42.6064C68.3357 42.1692 67.3706 41.5135 66.5082 40.6392C65.6252 39.743 64.9579 38.7704 64.5061 37.7212C64.0749 36.6502 63.8593 35.4808 63.8593 34.2131C63.8388 32.9454 64.0441 31.776 64.4753 30.705C64.9065 29.6121 65.5636 28.6066 66.4466 27.6886C67.309 26.7706 68.2844 26.0821 69.3727 25.6231C70.461 25.1641 71.6622 24.9346 72.9764 24.9346C73.5719 24.9346 74.1468 24.9892 74.7012 25.0985C75.2556 25.1859 75.7895 25.328 76.3029 25.5247C76.8367 25.7214 77.3296 25.9728 77.7813 26.2788C78.2536 26.563 78.6951 26.8908 79.1057 27.2624C79.578 27.6995 79.999 28.1695 80.3686 28.6722C80.7382 29.1749 81.0462 29.7104 81.2926 30.2787C81.539 30.847 81.7238 31.4263 81.847 32.0164C81.9908 32.6066 82.0729 33.1967 82.0934 33.7869C82.0934 33.8087 82.0934 33.8306 82.0934 33.8524C82.0934 33.8743 82.0934 33.8962 82.0934 33.918C82.0934 33.918 82.0934 33.9289 82.0934 33.9508C82.0934 33.9727 82.0934 33.9945 82.0934 34.0164C82.0934 34.0382 82.0934 34.0601 82.0934 34.0819C82.0934 34.0819 82.0934 34.0929 82.0934 34.1147C82.0934 34.9016 81.9908 35.6666 81.7854 36.4098C81.6006 37.1529 81.3234 37.8852 80.9538 38.6065C80.5842 39.3278 80.1222 39.9725 79.5678 40.5408C79.0133 41.1091 78.3768 41.6119 77.6581 42.049C77.3296 42.2676 76.9805 42.4534 76.6109 42.6064C76.2413 42.7594 75.8511 42.8687 75.4404 42.9342C75.0503 43.0435 74.6499 43.12 74.2392 43.1637C73.8285 43.2293 73.4076 43.2621 72.9764 43.2621V43.2949ZM70.5739 34.1475C70.5534 34.6284 70.6047 35.0546 70.7279 35.4262C70.8511 35.7978 71.0359 36.1256 71.2823 36.4098C71.5287 36.6939 71.7854 36.9016 72.0523 37.0327C72.3398 37.1639 72.6478 37.2294 72.9764 37.2294C72.9969 37.2294 73.0174 37.2294 73.038 37.2294C73.0585 37.2294 73.079 37.2294 73.0996 37.2294C73.0996 37.2294 73.1098 37.2294 73.1304 37.2294C73.1509 37.2294 73.1714 37.2294 73.192 37.2294C73.233 37.2294 73.2741 37.2294 73.3152 37.2294C73.3563 37.2076 73.3973 37.1857 73.4384 37.1639C73.7053 37.1201 73.9415 37.0436 74.1468 36.9344C74.3727 36.8032 74.5575 36.6393 74.7012 36.4426C74.8655 36.2458 74.999 36.0163 75.1016 35.754C75.2043 35.4918 75.2762 35.1858 75.3172 34.836C75.3172 34.8142 75.3172 34.7923 75.3172 34.7705C75.3172 34.7486 75.3275 34.7158 75.348 34.6721C75.348 34.6502 75.348 34.6284 75.348 34.6065C75.348 34.5628 75.348 34.53 75.348 34.5082C75.348 34.4645 75.348 34.4317 75.348 34.4098C75.348 34.388 75.3583 34.3552 75.3788 34.3114C75.3788 34.2896 75.3788 34.2677 75.3788 34.2459C75.3788 34.2022 75.3788 34.1694 75.3788 34.1475C75.3788 33.9945 75.3686 33.8524 75.348 33.7213C75.3275 33.5683 75.2967 33.4262 75.2556 33.2951C75.2351 33.1639 75.194 33.0328 75.1324 32.9016C75.0914 32.7705 75.04 32.6503 74.9784 32.541C74.8552 32.3224 74.7115 32.1366 74.5472 31.9836C74.4035 31.8088 74.2495 31.6776 74.0852 31.5902C73.9209 31.4809 73.7464 31.4044 73.5616 31.3607C73.3768 31.2951 73.1817 31.2623 72.9764 31.2623C72.771 31.2623 72.5657 31.2951 72.3604 31.3607C72.1755 31.4044 72.001 31.4809 71.8367 31.5902C71.6725 31.6776 71.5185 31.8088 71.3747 31.9836C71.231 32.1366 71.0975 32.3224 70.9743 32.541C70.9127 32.6503 70.8511 32.7705 70.7895 32.9016C70.7484 33.0328 70.7074 33.1639 70.6663 33.2951C70.6458 33.4262 70.6252 33.5683 70.6047 33.7213C70.5842 33.8524 70.5739 34.0054 70.5739 34.1803V34.1475Z" fill="white"/>
<path d="M58.8339 51.0004C58.3821 50.9785 57.9509 50.8692 57.5402 50.6725C57.1501 50.4976 56.7907 50.2353 56.4622 49.8856C56.1336 49.5359 55.8872 49.1534 55.723 48.7381C55.5587 48.3228 55.4766 47.8638 55.4766 47.3611V28.7057C55.4766 28.4871 55.4971 28.2576 55.5382 28.0172C55.5792 27.7767 55.6408 27.5472 55.723 27.3287C55.8256 27.1101 55.9386 26.9024 56.0618 26.7057C56.185 26.509 56.3185 26.3232 56.4622 26.1484C56.6265 25.9735 56.801 25.8205 56.9858 25.6893C57.1911 25.5363 57.3965 25.4161 57.6018 25.3287C57.8072 25.2413 58.0125 25.1757 58.2178 25.132C58.4437 25.0883 58.6696 25.0664 58.8955 25.0664C58.916 25.0664 58.9365 25.0664 58.9571 25.0664C58.9776 25.0664 58.9981 25.0664 59.0187 25.0664C59.0392 25.0664 59.0495 25.0664 59.0495 25.0664C59.07 25.0664 59.0905 25.0664 59.1111 25.0664C59.1316 25.0664 59.1521 25.0664 59.1727 25.0664C59.2753 25.0883 59.3677 25.1101 59.4499 25.132C59.5525 25.1538 59.6552 25.1757 59.7579 25.1976C59.84 25.2194 59.9324 25.2522 60.0351 25.2959C60.1378 25.3178 60.2302 25.3506 60.3123 25.3943C60.4971 25.4817 60.6716 25.591 60.8359 25.7221C61.0002 25.8314 61.1542 25.9735 61.2979 26.1484C61.4622 26.3232 61.6059 26.509 61.7291 26.7057C61.8523 26.9024 61.955 27.121 62.0372 27.3614C62.1398 27.58 62.2117 27.8095 62.2528 28.05C62.2938 28.2904 62.3144 28.5308 62.3144 28.7713V47.3611C62.3144 47.8638 62.2322 48.3228 62.068 48.7381C61.9037 49.1753 61.647 49.5687 61.2979 49.9184C60.9694 50.29 60.5895 50.5523 60.1583 50.7053C59.7476 50.8801 59.3061 50.9676 58.8339 50.9676V51.0004Z" fill="white"/>
<path d="M42.0552 25.0652C42.1168 25.087 42.1784 25.098 42.24 25.098C42.3016 25.0761 42.3735 25.0542 42.4556 25.0324C42.5172 25.0324 42.5788 25.0324 42.6404 25.0324C42.702 25.0105 42.7636 24.9996 42.8252 24.9996C42.9484 24.9777 43.0716 24.9668 43.1948 24.9668C43.3181 24.945 43.4413 24.934 43.5645 24.934C43.9546 24.934 44.3242 24.9668 44.6733 25.0324C45.0224 25.098 45.3612 25.1963 45.6897 25.3275C46.0183 25.4586 46.316 25.6225 46.5829 25.8193C46.8704 26.016 47.1374 26.2345 47.3838 26.475V26.5406L50.2174 24.934C50.2585 24.934 50.2893 24.934 50.3099 24.934C50.3509 24.9122 50.3817 24.8903 50.4023 24.8685C50.4433 24.8466 50.4844 24.8357 50.5255 24.8357C50.5665 24.8138 50.6076 24.8029 50.6487 24.8029C50.6692 24.8029 50.6897 24.8029 50.7103 24.8029C50.7308 24.8029 50.7513 24.7919 50.7719 24.7701C50.7719 24.7701 50.7821 24.7701 50.8027 24.7701C50.8232 24.7701 50.8437 24.7701 50.8643 24.7701C50.8848 24.7701 50.9053 24.7701 50.9259 24.7701C50.9464 24.7701 50.9669 24.7592 50.9875 24.7373C50.9875 24.7373 50.9977 24.7373 51.0183 24.7373C51.0388 24.7373 51.0593 24.7373 51.0799 24.7373C51.1825 24.7373 51.2852 24.7592 51.3879 24.8029C51.5111 24.8247 51.624 24.8575 51.7267 24.9012C51.8294 24.945 51.932 24.9996 52.0347 25.0652C52.1374 25.1307 52.2298 25.2072 52.3119 25.2947C52.5172 25.5132 52.6918 25.7537 52.8355 26.016C52.9998 26.2564 53.1333 26.5187 53.2359 26.8028C53.3386 27.087 53.4207 27.3821 53.4823 27.6881C53.5439 27.9722 53.5747 28.2673 53.5747 28.5733V39.5567C53.5747 40.125 53.4926 40.6277 53.3283 41.0649C53.1846 41.502 52.9587 41.8845 52.6507 42.2124C52.3427 42.5621 52.0039 42.8135 51.6343 42.9665C51.2852 43.1195 50.9053 43.196 50.4947 43.196C50.4741 43.196 50.4536 43.196 50.4331 43.196C50.4125 43.196 50.392 43.196 50.3715 43.196C50.3715 43.196 50.3612 43.196 50.3407 43.196C50.3201 43.1741 50.2996 43.1632 50.2791 43.1632C50.2585 43.1632 50.238 43.1632 50.2174 43.1632C50.2174 43.1632 50.2072 43.1632 50.1866 43.1632L47.3838 41.4911V41.655C47.1579 41.9173 46.9012 42.1468 46.6137 42.3435C46.3468 42.5403 46.0593 42.7042 45.7513 42.8353C45.4433 42.9228 45.1045 42.9993 44.7349 43.0648C44.3653 43.1523 43.9751 43.196 43.5645 43.196C43.4207 43.196 43.277 43.1851 43.1332 43.1632C43.01 43.1632 42.8766 43.1523 42.7328 43.1304C42.6507 43.1304 42.5686 43.1195 42.4864 43.0976C42.4248 43.0976 42.3632 43.0867 42.3016 43.0648C42.2195 43.0648 42.1374 43.0539 42.0552 43.0321C41.9936 43.0321 41.9217 43.0211 41.8396 42.9993C41.3673 42.9337 40.8951 42.8026 40.4228 42.6058C39.971 42.4091 39.5295 42.1468 39.0983 41.819C38.6671 41.4911 38.2564 41.1195 37.8663 40.7042C37.4967 40.2889 37.1476 39.819 36.8191 39.2944C36.6137 38.9228 36.4187 38.5513 36.2339 38.1797C36.0696 37.7862 35.9361 37.3819 35.8334 36.9666C35.7102 36.5294 35.6178 36.0923 35.5562 35.6551C35.5152 35.218 35.4946 34.7699 35.4946 34.3109C35.4946 34.289 35.4946 34.2672 35.4946 34.2453C35.4946 34.2235 35.4946 34.2016 35.4946 34.1798C35.4946 34.1798 35.4946 34.1688 35.4946 34.147C35.4946 34.1251 35.4946 34.1033 35.4946 34.0814C35.4946 34.0377 35.4946 33.994 35.4946 33.9503C35.4946 33.9065 35.4946 33.8628 35.4946 33.8191C35.5357 32.7044 35.7205 31.6661 36.049 30.7044C36.3981 29.7427 36.8909 28.8574 37.5275 28.0487C38.164 27.24 38.8519 26.5952 39.5911 26.1143C40.3509 25.6116 41.1723 25.2728 42.0552 25.098V25.0652ZM42.3016 34.2453C42.3016 34.4639 42.3119 34.6606 42.3324 34.8355C42.353 35.0103 42.394 35.1743 42.4556 35.3273C42.4967 35.4803 42.5583 35.6333 42.6404 35.7863C42.7226 35.9393 42.815 36.0814 42.9176 36.2125C43.0203 36.3655 43.1332 36.4967 43.2565 36.6059C43.4002 36.7152 43.5439 36.8027 43.6877 36.8682C43.8519 36.9557 44.0059 37.0212 44.1497 37.0649C44.3139 37.0868 44.468 37.0977 44.6117 37.0977C44.6322 37.0977 44.6528 37.0977 44.6733 37.0977C44.6938 37.0977 44.7144 37.0977 44.7349 37.0977C44.7554 37.0977 44.776 37.0977 44.7965 37.0977C44.9608 37.0759 45.125 37.0322 45.2893 36.9666C45.4741 36.901 45.6487 36.8136 45.8129 36.7043C45.9772 36.595 46.1209 36.4639 46.2441 36.3109C46.3879 36.1579 46.5111 35.9721 46.6137 35.7535C46.6548 35.6879 46.6856 35.6224 46.7062 35.5568C46.7472 35.4693 46.778 35.3819 46.7986 35.2945C46.8396 35.2289 46.8602 35.1524 46.8602 35.065C46.8807 34.9776 46.9012 34.8901 46.9218 34.8027C46.9218 34.7808 46.9218 34.759 46.9218 34.7371C46.9218 34.7153 46.932 34.6825 46.9526 34.6388C46.9526 34.6169 46.9526 34.595 46.9526 34.5732C46.9526 34.5513 46.9526 34.5295 46.9526 34.5076C46.9526 34.4858 46.9526 34.4639 46.9526 34.442C46.9526 34.4202 46.9628 34.3874 46.9834 34.3437C46.9834 34.3218 46.9834 34.3 46.9834 34.2781C46.9834 34.2563 46.9834 34.2344 46.9834 34.2125C46.9834 34.1907 46.9834 34.1798 46.9834 34.1798C46.9834 34.1579 46.9834 34.136 46.9834 34.1142C46.9834 34.0923 46.9834 34.0814 46.9834 34.0814C46.9834 34.0595 46.9834 34.0377 46.9834 34.0158C46.9628 33.994 46.9526 33.983 46.9526 33.983C46.9526 33.9612 46.9526 33.9393 46.9526 33.9175C46.9526 33.8956 46.9526 33.8847 46.9526 33.8847C46.9526 33.8628 46.9526 33.841 46.9526 33.8191C46.9115 33.535 46.8499 33.2836 46.7678 33.065C46.6856 32.8246 46.5829 32.606 46.4597 32.4093C46.3365 32.2344 46.1928 32.0814 46.0285 31.9503C45.8848 31.7973 45.7205 31.6771 45.5357 31.5896C45.4946 31.5678 45.4536 31.5569 45.4125 31.5569C45.3714 31.535 45.3304 31.5131 45.2893 31.4913C45.2482 31.4913 45.2072 31.4913 45.1661 31.4913C45.1456 31.4694 45.1148 31.4476 45.0737 31.4257C45.0532 31.4257 45.0326 31.4257 45.0121 31.4257C44.9916 31.4257 44.971 31.4148 44.9505 31.3929C44.93 31.3929 44.9094 31.3929 44.8889 31.3929C44.8684 31.3929 44.8478 31.3929 44.8273 31.3929C44.8068 31.3929 44.7862 31.3929 44.7657 31.3929C44.7452 31.3929 44.7246 31.382 44.7041 31.3601C44.6836 31.3601 44.663 31.3601 44.6425 31.3601C44.622 31.3601 44.6014 31.3601 44.5809 31.3601C44.3139 31.382 44.0573 31.4476 43.8109 31.5569C43.585 31.6661 43.3694 31.8191 43.164 32.0159C42.9587 32.2126 42.7842 32.453 42.6404 32.7372C42.5172 32.9995 42.4248 33.3164 42.3632 33.688C42.3632 33.7098 42.3632 33.7317 42.3632 33.7535C42.3427 33.7754 42.3324 33.7972 42.3324 33.8191C42.3324 33.8191 42.3324 33.83 42.3324 33.8519C42.3324 33.8738 42.3324 33.8956 42.3324 33.9175C42.3324 33.9393 42.3324 33.9612 42.3324 33.983C42.3324 34.0049 42.3324 34.0268 42.3324 34.0486C42.3119 34.0705 42.3016 34.0923 42.3016 34.1142C42.3016 34.1142 42.3016 34.1251 42.3016 34.147C42.3016 34.1688 42.3016 34.1907 42.3016 34.2125C42.3016 34.2344 42.3016 34.2563 42.3016 34.2781V34.2453Z" fill="white"/>
<path d="M30.4707 43.2296C29.9984 43.2077 29.5569 43.1094 29.1462 42.9345C28.7561 42.7815 28.3865 42.5302 28.0374 42.1804C27.7088 41.8307 27.4624 41.4482 27.2982 41.0329C27.1339 40.5958 27.0518 40.1258 27.0518 39.6231V28.6397C27.0518 28.1588 27.1339 27.6998 27.2982 27.2627C27.483 26.8255 27.7396 26.4321 28.0682 26.0824C28.4173 25.7108 28.7869 25.4485 29.177 25.2955C29.5877 25.1206 30.0292 25.0332 30.5015 25.0332C30.9737 25.0551 31.4049 25.1534 31.7951 25.3283C32.2058 25.5031 32.5754 25.7764 32.9039 26.1479C33.253 26.4977 33.5097 26.8911 33.6739 27.3282C33.8382 27.7435 33.9204 28.2025 33.9204 28.7053V39.5575C33.9204 40.0821 33.8382 40.563 33.6739 41.0001C33.5097 41.4154 33.253 41.8089 32.9039 42.1804C32.5754 42.5302 32.2058 42.7815 31.7951 42.9345C31.3844 43.1094 30.9429 43.1968 30.4707 43.1968V43.2296Z" fill="white"/>
<path d="M2.46407 13.5905C2.5154 13.5905 2.55391 13.5905 2.57957 13.5905C2.63091 13.5631 2.66941 13.5358 2.69508 13.5085C2.74641 13.5085 2.78491 13.5085 2.81058 13.5085C2.86191 13.4812 2.90042 13.4539 2.92608 13.4265C3.00309 13.3719 3.08009 13.3446 3.15709 13.3446C3.25976 13.3172 3.36243 13.2899 3.4651 13.2626C3.51643 13.2626 3.55493 13.2626 3.5806 13.2626C3.63194 13.2353 3.68327 13.2216 3.73461 13.2216C3.76027 13.1943 3.79877 13.1806 3.85011 13.1806C3.90144 13.1806 3.93995 13.1806 3.96561 13.1806C4.01695 13.1806 4.05545 13.1806 4.08112 13.1806C4.13245 13.1806 4.18379 13.167 4.23512 13.1396C4.26079 13.1396 4.29929 13.1396 4.35062 13.1396C4.40196 13.1396 4.44046 13.1396 4.46613 13.1396C4.90247 13.1396 5.32599 13.208 5.73666 13.3446C6.14734 13.4812 6.54519 13.6861 6.9302 13.9593C7.31521 14.2325 7.63605 14.5604 7.89272 14.9429C8.17507 15.3254 8.40607 15.7489 8.58574 16.2134L13.0904 29.4508L17.6335 16.1724C17.7875 15.7352 17.9928 15.3254 18.2495 14.9429C18.5319 14.5604 18.8655 14.2325 19.2505 13.9593C19.6356 13.6861 20.0334 13.4812 20.4441 13.3446C20.8548 13.208 21.2911 13.1396 21.7531 13.1396C21.8301 13.1396 21.9071 13.1396 21.9841 13.1396C22.0611 13.1396 22.151 13.1533 22.2536 13.1806C22.3306 13.1806 22.4076 13.1943 22.4846 13.2216C22.5616 13.2216 22.6386 13.2353 22.7156 13.2626C22.8697 13.2899 23.0237 13.3446 23.1777 13.4265C23.3573 13.4812 23.537 13.5495 23.7167 13.6314C24.1274 13.85 24.4867 14.1096 24.7947 14.4101C25.1027 14.7107 25.3722 15.0522 25.6032 15.4347C25.8086 15.7899 25.9626 16.1724 26.0652 16.5822C26.1936 16.992 26.2577 17.4019 26.2577 17.8117C26.2577 17.9756 26.2449 18.1396 26.2192 18.3035C26.2192 18.4401 26.2064 18.5767 26.1807 18.7133C26.1551 18.8499 26.1166 19.0002 26.0652 19.1641C26.0139 19.3007 25.9626 19.4373 25.9112 19.574L17.287 40.1474C17.1073 40.6118 16.9148 41.0217 16.7095 41.3768C16.5041 41.7047 16.2988 41.9779 16.0935 42.1965C15.8625 42.4424 15.6186 42.6336 15.3619 42.7703C15.1053 42.9069 14.8358 43.0162 14.5534 43.0981C14.4251 43.1528 14.2839 43.1801 14.1299 43.1801C14.0016 43.2074 13.8732 43.2347 13.7449 43.2621C13.6166 43.2894 13.4882 43.303 13.3599 43.303C13.2315 43.3304 13.1032 43.344 12.9749 43.344C12.5129 43.344 12.0893 43.2757 11.7043 43.1391C11.3193 43.0025 10.9471 42.8249 10.5878 42.6063C10.2541 42.3331 9.93328 41.9916 9.62527 41.5818C9.34293 41.1719 9.09909 40.7075 8.89375 40.1883L0.269508 19.533C0.295175 19.5057 0.295175 19.4647 0.269508 19.41C0.24384 19.3281 0.218173 19.2461 0.192505 19.1641C0.166838 19.0822 0.154004 19.0002 0.154004 18.9182C0.128337 18.8363 0.10267 18.7543 0.0770022 18.6723C0.0770022 18.645 0.0770022 18.6177 0.0770022 18.5904C0.0770022 18.563 0.0641685 18.5221 0.0385011 18.4674C0.0385011 18.4401 0.0385011 18.4128 0.0385011 18.3855C0.0385011 18.3308 0.0385011 18.2898 0.0385011 18.2625C0.0385011 18.2079 0.0385011 18.1669 0.0385011 18.1396C0.0385011 18.1122 0.0256674 18.0713 0 18.0166C0 17.9893 0 17.962 0 17.9346C0 17.88 0 17.839 0 17.8117C0 17.3745 0.0641685 16.9511 0.192505 16.5412C0.295175 16.1314 0.436346 15.7489 0.616018 15.3937C0.821357 15.0112 1.07803 14.6833 1.38604 14.4101C1.69405 14.1096 2.05339 13.85 2.46407 13.6314V13.5905Z" fill="white"/>
<path d="M58.0514 13.9609C59.0692 13.9609 59.9078 13.1316 59.7608 12.1245C59.3193 9.09966 57.7957 6.27056 55.3957 4.08906C52.5154 1.47088 48.6089 2.79544e-07 44.5355 0C40.4621 -2.79544e-07 36.5555 1.47088 33.6752 4.08906C31.2753 6.27056 29.7517 9.09966 29.3102 12.1245C29.1632 13.1316 30.0018 13.9609 31.0195 13.9609V13.9609C32.0373 13.9609 32.8448 13.1286 33.0375 12.1292C33.449 9.99518 34.5731 8.01072 36.2813 6.45796C38.4705 4.46805 41.4396 3.35014 44.5355 3.35014C47.6314 3.35014 50.6005 4.46806 52.7897 6.45796C54.4979 8.01072 55.622 9.99518 56.0335 12.1292C56.2261 13.1286 57.0337 13.9609 58.0514 13.9609V13.9609Z" fill="white"/>
<path fill-rule="evenodd" clip-rule="evenodd" d="M30.0984 22.8631C26.5512 18.1518 26.8994 15.4404 29.5693 15.2654C34.0194 14.9736 33.418 19.1762 30.0984 22.8631ZM31.5444 17.7686C31.5444 18.4695 30.9587 19.0377 30.2363 19.0377C29.5138 19.0377 28.9282 18.4695 28.9282 17.7686C28.9282 17.0676 29.5138 16.4994 30.2363 16.4994C30.9587 16.4994 31.5444 17.0676 31.5444 17.7686Z" fill="white"/>
<path fill-rule="evenodd" clip-rule="evenodd" d="M58.6564 22.8982C55.1094 18.187 55.4575 15.4755 58.1274 15.3005C62.5773 15.0088 61.976 19.2113 58.6564 22.8982ZM60.103 17.8037C60.103 18.5047 59.5174 19.0729 58.795 19.0729C58.0726 19.0729 57.4869 18.5047 57.4869 17.8037C57.4869 17.1028 58.0726 16.5345 58.795 16.5345C59.5174 16.5345 60.103 17.1028 60.103 17.8037Z" fill="white"/>
</svg>
